<svg xmlns="http://www.w3.org/2000/svg" viewBox="0 0 16.57 17.05"><defs><style>.cls-1{fill:#8c95b0;}</style></defs><title>bil</title><g id="Layer_2" data-name="Layer 2"><g id="Layer_1-2" data-name="Layer 1"><path class="cls-1" d="M13.9,14.87a1.29,1.29,0,1,1-1.86,0H7.86A1.27,1.27,0,0,1,8.18,16,1.28,1.28,0,1,1,6,14.88H4.61a.35.35,0,0,1-.37-.29c-.16-.66-.31-1.31-.47-2l-.51-2.15C3,9.25,2.69,8,2.4,6.82,2.21,6,2,5.2,1.82,4.39c-.05-.23-.11-.47-.16-.71,0-.05,0-.06-.08-.06H.37A.37.37,0,0,1,0,3.3a.36.36,0,0,1,.33-.4H1.88a.37.37,0,0,1,.41.33c.2.8.39,1.61.58,2.42.06.24.11.47.17.72h2.3a.09.09,0,0,0,.1-.06.26.26,0,0,1,.07-.11l.11-.12c.13-.12.13-.12.06-.29a.08.08,0,0,0-.06,0H5.33A.35.35,0,0,1,5,5.4c0-.27,0-.55,0-.82s0-.81,0-1.22a.38.38,0,0,1,.4-.4h.25s.06,0,.07-.05.07-.16-.06-.29L5.5,2.5a.36.36,0,0,1,0-.5L6.87.65,7,.55a.38.38,0,0,1,.53,0l.2.2a.09.09,0,0,0,.07,0C7.93.7,7.93.7,7.93.53V.35A.35.35,0,0,1,8.28,0h2.09a.35.35,0,0,1,.35.34v.3a.07.07,0,0,0,0,.08c.16.06.15.06.28-.06l.09-.1a.38.38,0,0,1,.55,0c.25.25.5.51.76.76l.67.67a.38.38,0,0,1,0,.55l-.19.18a.11.11,0,0,0,0,.08C13,3,13,3,13.16,3h.19a.32.32,0,0,1,.32.29c0,.11,0,.22,0,.33s0,.29,0,.43V5.36a.36.36,0,0,1-.39.39H13s0,0-.07,0-.06.15.06.28a.71.71,0,0,1,.21.27s0,0,0,0h2.59a.36.36,0,0,1,.38.48l-1,4.31c-.1.43-.21.86-.31,1.29a.36.36,0,0,1-.38.3h-10c0,.18.09.37.14.55s.12.51.17.76a.09.09,0,0,0,.11.08H16.2a.37.37,0,0,1,.36.3.36.36,0,0,1-.25.41H13.9ZM15.43,7.1H3.22a.13.13,0,0,0,0,.06l.45,1.92c.23,1,.45,1.91.67,2.87,0,.05,0,.08.1.08h9.82ZM6.29,2.27l.13.12a.38.38,0,0,1,.08.49c-.08.18-.16.36-.22.54a.36.36,0,0,1-.37.27H5.7V5h.23a.38.38,0,0,1,.34.24c.08.2.16.41.25.61a.37.37,0,0,1-.08.42.18.18,0,0,1-.07,0l0,0h5.88a.12.12,0,0,0,0,0,.4.4,0,0,1-.07-.51,4.4,4.4,0,0,0,.21-.5.37.37,0,0,1,.4-.29H13V3.69h-.23a.38.38,0,0,1-.35-.25,5.89,5.89,0,0,0-.24-.58.37.37,0,0,1,.07-.44l.15-.15-.94-.94a1.85,1.85,0,0,0-.14.14.38.38,0,0,1-.46.07l-.55-.23A.37.37,0,0,1,10,.94V.73H8.66V1a.36.36,0,0,1-.28.35,4.61,4.61,0,0,0-.51.22.41.41,0,0,1-.53-.1l-.11-.1Zm.65,14.05a.55.55,0,0,0,.54-.56.55.55,0,1,0-1.1,0A.56.56,0,0,0,6.94,16.32Zm5.48-.55a.56.56,0,0,0,.56.55.56.56,0,1,0-.56-.55Z"/><path class="cls-1" d="M7.89,4.35A1.43,1.43,0,0,1,9.34,2.92,1.44,1.44,0,1,1,7.89,4.35Zm2.14,0a.73.73,0,0,0-.71-.71.71.71,0,1,0,.71.71Z"/></g></g></svg>